<?xml version="1.0" encoding="UTF-8" standalone="no"?><!DOCTYPE svg PUBLIC "-//W3C//DTD SVG 1.1//EN" "http://www.w3.org/Graphics/SVG/1.1/DTD/svg11.dtd"><svg width="100%" height="100%" viewBox="0 0 359 195" version="1.1" xmlns="http://www.w3.org/2000/svg" xmlns:xlink="http://www.w3.org/1999/xlink" xml:space="preserve" xmlns:serif="http://www.serif.com/" style="fill-rule:evenodd;clip-rule:evenodd;stroke-linejoin:round;stroke-miterlimit:2;"><path d="M211.512,3.602c-36.119,7.138 -64.259,32.078 -77.162,63.893l-1.692,-0.055c12.995,-32.552 41.674,-58.115 78.545,-65.401c53.583,-10.59 105.867,21.067 122.331,71.784l-1.696,-0.054c-16.419,-49.639 -67.736,-80.561 -120.326,-70.167" style="fill:#fff;fill-rule:nonzero;"/><path d="M212.534,8.643c-31.269,6.18 -56.263,26.344 -69.834,52.693l-0.971,-0.032c13.646,-26.759 38.949,-47.259 70.635,-53.521c47.772,-9.441 94.468,16.518 112.869,59.624l-0.978,-0.033c-18.357,-42.502 -64.502,-68.062 -111.721,-58.731" style="fill:#fff;fill-rule:nonzero;"/><path d="M72.673,185.298c-0.717,2.372 -1.931,3.379 -4.138,3.379c-3.007,0 -4.331,-1.53 -4.331,-5.104c0,-3.572 1.324,-5.103 4.331,-5.103c2.455,0 3.655,1.007 4.138,3.38l-0.772,0c-0.483,-1.946 -1.407,-2.691 -3.366,-2.691c-2.455,0 -3.518,1.284 -3.518,4.414c0,3.132 1.049,4.414 3.518,4.414c1.765,0 2.69,-0.73 3.366,-2.689l0.772,0Z" style="fill:#fff;fill-rule:nonzero;"/><path d="M76.796,183.574c0,3.132 1.062,4.414 3.628,4.414c2.566,0 3.642,-1.282 3.642,-4.414c0,-3.131 -1.076,-4.414 -3.642,-4.414c-2.566,0 -3.628,1.283 -3.628,4.414m8.07,0c0,3.573 -1.324,5.104 -4.442,5.104c-3.118,0 -4.442,-1.531 -4.442,-5.104c0,-3.572 1.324,-5.104 4.442,-5.104c3.118,0 4.442,1.532 4.442,5.104" style="fill:#fff;fill-rule:nonzero;"/><path d="M95.872,178.746l0,9.656l-0.966,0l-5.558,-8.662l0,8.662l-0.759,0l0,-9.656l0.979,0l5.559,8.663l0,-8.663l0.745,0Z" style="fill:#fff;fill-rule:nonzero;"/><path d="M100.795,179.394l0,3.614l4.952,0l0,0.649l-4.952,0l0,4.745l-0.786,0l0,-9.656l6.29,0l0,0.648l-5.504,0Z" style="fill:#fff;fill-rule:nonzero;"/><path d="M110.533,179.394l0,3.614l4.952,0l0,0.649l-4.952,0l0,4.096l5.504,0l0,0.649l-6.29,0l0,-9.656l6.29,0l0,0.648l-5.504,0Z" style="fill:#fff;fill-rule:nonzero;"/><rect x="119.622" y="178.746" width="0.786" height="9.656" style="fill:#fff;"/><path d="M130.67,179.436l-3.09,0l0,8.966l-0.772,0l0,-8.966l-3.09,0l0,-0.69l6.952,0l0,0.69Z" style="fill:#fff;fill-rule:nonzero;"/><path d="M133.994,185.243l4.193,0l-2.083,-5.724l-2.11,5.724Zm4.428,0.621l-4.649,0l-0.938,2.538l-0.786,0l3.559,-9.656l1.048,0l3.504,9.656l-0.814,0l-0.924,-2.538Z" style="fill:#fff;fill-rule:nonzero;"/><path d="M147.579,184.015c1.738,0 2.455,-0.717 2.455,-2.304c0,-1.613 -0.703,-2.317 -2.455,-2.317l-3.187,0l0,4.621l3.187,0Zm0.276,0.607l-3.463,0l0,3.766l-0.786,0l0,-9.656l4,0c2.249,0 3.201,1.021 3.201,2.966c0,1.641 -0.663,2.58 -2.166,2.855l2.111,3.849l-0.842,0l-2.055,-3.78Z" style="fill:#fff;fill-rule:nonzero;"/><rect x="154.529" y="178.746" width="0.786" height="9.656" style="fill:#fff;"/><path d="M160.709,185.243l4.193,0l-2.083,-5.724l-2.11,5.724Zm4.428,0.621l-4.649,0l-0.938,2.538l-0.786,0l3.559,-9.656l1.048,0l3.504,9.656l-0.814,0l-0.924,-2.538Z" style="fill:#fff;fill-rule:nonzero;"/><path d="M193.707,192.563c-0.275,0.275 -0.906,0.091 -1.41,-0.412c-0.504,-0.504 -0.689,-1.136 -0.413,-1.411c0.275,-0.276 0.907,-0.091 1.411,0.413c0.503,0.504 0.687,1.135 0.412,1.41m-19.024,-15.597l-0.054,-0.022c-1.503,-0.655 -2.922,-1.274 -4.09,-2.393c-0.632,-0.605 -1.098,-1.381 -1.348,-2.242c-0.124,-0.431 -0.172,-0.874 -0.144,-1.306c0.016,0.026 0.035,0.05 0.052,0.076c0.045,0.068 0.095,0.136 0.143,0.206c0.094,0.135 0.193,0.27 0.298,0.406c0.056,0.072 0.112,0.143 0.171,0.215c0.114,0.14 0.234,0.278 0.358,0.416c0.055,0.061 0.108,0.122 0.164,0.182c0.184,0.197 0.374,0.39 0.574,0.577c1.501,1.401 3.195,2.593 4.988,3.855c0.469,0.33 0.942,0.663 1.416,1.003c0.119,0.085 0.238,0.176 0.357,0.262c0.357,0.258 0.714,0.517 1.071,0.788c0.172,0.13 0.341,0.269 0.513,0.403c0.303,0.235 0.607,0.47 0.908,0.718c0.194,0.16 0.385,0.335 0.578,0.501c0.225,0.193 0.45,0.387 0.673,0.59l-0.043,0.043c-1.718,-1.442 -4.623,-3.421 -6.585,-4.278m6.998,3.865l-0.072,0.071c-0.232,-0.211 -0.467,-0.406 -0.701,-0.609c-0.191,-0.164 -0.38,-0.336 -0.572,-0.496c-0.313,-0.257 -0.628,-0.501 -0.942,-0.745c-0.165,-0.128 -0.328,-0.262 -0.492,-0.386c-0.384,-0.291 -0.769,-0.572 -1.153,-0.849c-0.094,-0.068 -0.188,-0.14 -0.282,-0.208c-0.48,-0.344 -0.958,-0.681 -1.432,-1.014c-1.782,-1.253 -3.464,-2.437 -4.944,-3.819c-0.207,-0.193 -0.405,-0.394 -0.594,-0.597c-0.052,-0.055 -0.096,-0.112 -0.146,-0.168c-0.133,-0.149 -0.267,-0.298 -0.387,-0.449c-0.057,-0.07 -0.104,-0.141 -0.157,-0.211c-0.104,-0.137 -0.209,-0.274 -0.302,-0.411c-0.055,-0.081 -0.099,-0.161 -0.15,-0.241c-0.07,-0.115 -0.143,-0.228 -0.205,-0.34c0.132,-0.506 0.374,-0.968 0.709,-1.35l11.822,11.822Zm-10.178,-12.825c0.11,0.062 0.223,0.133 0.334,0.203c0.083,0.051 0.165,0.097 0.248,0.153c0.128,0.087 0.257,0.185 0.385,0.282c0.08,0.061 0.159,0.114 0.239,0.178c0.131,0.105 0.26,0.221 0.39,0.336c0.075,0.067 0.152,0.128 0.227,0.197c0.202,0.188 0.401,0.386 0.593,0.592c1.383,1.48 2.567,3.163 3.82,4.944c0.332,0.472 0.667,0.947 1.01,1.425c0.093,0.13 0.192,0.261 0.287,0.392c0.254,0.348 0.507,0.698 0.772,1.047c0.128,0.171 0.268,0.34 0.4,0.51c0.241,0.31 0.48,0.619 0.734,0.927c0.154,0.186 0.323,0.37 0.482,0.556c0.206,0.24 0.406,0.48 0.622,0.717l-0.07,0.072l-5.878,-5.877l-5.945,-5.946c0.383,-0.335 0.845,-0.577 1.35,-0.708m1.95,0.042c0.862,0.249 1.638,0.715 2.243,1.347c1.154,1.205 1.802,2.692 2.429,4.129c0.87,1.996 2.839,4.899 4.263,6.6l-0.043,0.043c-0.198,-0.216 -0.384,-0.435 -0.573,-0.653c-0.172,-0.2 -0.353,-0.398 -0.519,-0.599c-0.24,-0.291 -0.465,-0.584 -0.693,-0.877c-0.143,-0.182 -0.291,-0.364 -0.43,-0.546c-0.249,-0.329 -0.487,-0.658 -0.726,-0.988c-0.107,-0.147 -0.219,-0.295 -0.325,-0.442c-0.339,-0.473 -0.67,-0.943 -0.999,-1.411c-1.262,-1.793 -2.454,-3.486 -3.856,-4.988c-0.186,-0.2 -0.379,-0.39 -0.575,-0.574c-0.061,-0.056 -0.123,-0.109 -0.184,-0.165c-0.137,-0.124 -0.276,-0.243 -0.415,-0.357c-0.072,-0.059 -0.142,-0.114 -0.214,-0.17c-0.138,-0.106 -0.275,-0.206 -0.412,-0.302c-0.066,-0.047 -0.132,-0.094 -0.198,-0.137c-0.026,-0.018 -0.052,-0.039 -0.078,-0.055c0.433,-0.027 0.874,0.02 1.305,0.145m10.062,12.813l0.51,-0.511l-0.932,-0.932l-0.407,0.409c-1.403,-1.679 -3.327,-4.516 -4.18,-6.47c-0.641,-1.471 -1.304,-2.99 -2.51,-4.25c-0.655,-0.685 -1.495,-1.19 -2.427,-1.46c-0.662,-0.19 -1.35,-0.215 -1.996,-0.08l-0.008,-0.004l-0.076,0.018l-0.538,0.126l0.047,0.024c-0.421,0.16 -0.801,0.399 -1.134,0.694l-0.01,-0.01l-0.147,0.147l-0.148,0.147l0.011,0.011c-0.296,0.332 -0.535,0.713 -0.695,1.134l-0.025,-0.047l-0.125,0.538l-0.018,0.076l0.004,0.008c-0.135,0.647 -0.111,1.333 0.08,1.996c0.27,0.931 0.775,1.771 1.46,2.427c1.222,1.171 2.742,1.832 4.211,2.473l0.054,0.023c1.921,0.838 4.758,2.773 6.454,4.194l-0.408,0.407l0.933,0.932l0.51,-0.51c2.481,2.91 11.945,13.78 13.485,12.098l0.123,-0.123c1.682,-1.54 -9.188,-11.004 -12.098,-13.485" style="fill:#fff;fill-rule:nonzero;"/><path d="M199.854,174.492c-1.546,1.546 -3.703,1.894 -4.819,0.777c-1.118,-1.116 -0.768,-3.273 0.776,-4.818c0.022,-0.021 0.043,-0.037 0.063,-0.058l0.069,0.069c-0.97,1.426 -1.07,3.095 -0.133,4.032c0.937,0.937 2.607,0.837 4.033,-0.133l0.068,0.068c-0.021,0.02 -0.036,0.042 -0.057,0.063m-20.713,17.669c-0.505,0.504 -1.136,0.688 -1.411,0.413c-0.275,-0.275 -0.091,-0.907 0.413,-1.41c0.502,-0.504 1.135,-0.689 1.41,-0.413c0.275,0.275 0.09,0.907 -0.412,1.41m23.369,-21.758c-0.149,-0.64 -0.466,-1.222 -0.927,-1.682c-0.46,-0.461 -1.042,-0.778 -1.683,-0.927c-0.621,-0.145 -1.299,-0.131 -1.975,0.064c-0.863,0.25 -1.689,0.73 -2.335,1.404c-1.157,1.209 -1.814,2.686 -2.469,4.189c-0.791,1.814 -2.544,4.467 -3.959,6.219c-2.626,2.254 -15.075,13.097 -13.339,14.686l0.123,0.124c1.59,1.737 12.44,-10.72 14.691,-13.342c1.749,-1.415 4.387,-3.179 6.201,-3.97c1.502,-0.655 2.995,-1.297 4.203,-2.455c0.674,-0.646 1.155,-1.472 1.405,-2.335c0.195,-0.676 0.208,-1.353 0.064,-1.975" style="fill:#fff;fill-rule:nonzero;"/><path d="M205.973,185.242l4.193,0l-2.083,-5.725l-2.11,5.725Zm4.428,0.621l-4.649,0l-0.938,2.538l-0.786,0l3.558,-9.655l1.049,0l3.504,9.655l-0.814,0l-0.924,-2.538Z" style="fill:#fff;fill-rule:nonzero;"/><path d="M219.559,184.014c1.737,0 2.455,-0.717 2.455,-2.304c0,-1.613 -0.704,-2.317 -2.455,-2.317l-3.187,0l0,4.621l3.187,0Zm0.275,0.607l-3.462,0l0,3.766l-0.786,0l0,-9.656l4,0c2.248,0 3.201,1.021 3.201,2.966c0,1.641 -0.663,2.58 -2.166,2.855l2.11,3.849l-0.841,0l-2.056,-3.78Z" style="fill:#fff;fill-rule:nonzero;"/><path d="M232.634,179.435l-3.09,0l0,8.966l-0.772,0l0,-8.966l-3.09,0l0,-0.689l6.952,0l0,0.689Z" style="fill:#fff;fill-rule:nonzero;"/><path d="M236.73,179.393l0,3.614l4.952,0l0,0.649l-4.952,0l0,4.096l5.503,0l0,0.649l-6.289,0l0,-9.655l6.289,0l0,0.647l-5.503,0Z" style="fill:#fff;fill-rule:nonzero;"/><path d="M252.357,185.822c0,2 -1.035,2.855 -3.477,2.855c-2.441,0 -3.475,-0.911 -3.475,-3.035l0.718,0c0,1.725 0.785,2.414 2.757,2.414c1.959,0 2.732,-0.621 2.732,-2.138c0,-2.993 -6.069,-1.145 -6.069,-4.593c0,-2 0.993,-2.856 3.337,-2.856c2.346,0 3.338,0.911 3.338,3.035l-0.715,0c0,-1.71 -0.76,-2.413 -2.623,-2.413c-1.846,0 -2.591,0.606 -2.591,2.137c0,2.8 6.069,0.98 6.069,4.594" style="fill:#fff;fill-rule:nonzero;"/><path d="M257.06,185.242l4.193,0l-2.083,-5.725l-2.11,5.725Zm4.428,0.621l-4.649,0l-0.938,2.538l-0.786,0l3.559,-9.655l1.048,0l3.504,9.655l-0.814,0l-0.924,-2.538Z" style="fill:#fff;fill-rule:nonzero;"/><path d="M273.955,178.746l0,9.655l-0.965,0l-5.559,-8.663l0,8.663l-0.759,0l0,-9.655l0.979,0l5.56,8.662l0,-8.662l0.744,0Z" style="fill:#fff;fill-rule:nonzero;"/><path d="M279.348,185.242l4.193,0l-2.083,-5.725l-2.11,5.725Zm4.428,0.621l-4.649,0l-0.938,2.538l-0.786,0l3.558,-9.655l1.049,0l3.504,9.655l-0.814,0l-0.924,-2.538Z" style="fill:#fff;fill-rule:nonzero;"/><path d="M294.728,188.401l-5.738,0l0,-9.655l0.786,0l0,8.966l4.952,0l0,0.689Z" style="fill:#fff;fill-rule:nonzero;"/><path d="M67.791,62.252c0,0 7.432,8.638 17.776,8.638c7.131,0 25.61,-8.236 25.61,-32.841c0,-24.706 -25.911,-29.226 -35.251,-29.226c-32.841,0 -52.124,24.405 -52.124,41.88c0,35.854 48.207,40.071 48.207,67.79c0,13.257 -11.55,23.3 -25.108,23.3c-13.256,0 -21.592,-7.934 -21.592,-17.876c0,-17.073 19.182,-29.326 19.182,-29.326c0,0 -44.491,-8.034 -44.491,29.326c0,28.924 30.833,34.949 45.294,34.949c39.168,0 49.312,-27.517 49.312,-39.77c0,-37.172 -47.906,-48.609 -47.906,-72.612c0,-13.557 16.27,-25.609 28.021,-25.609c14.361,0 17.895,11.896 11.348,22.697c-5.966,9.843 -18.278,18.68 -18.278,18.68" style="fill:#fff;fill-rule:nonzero;"/><path d="M244.555,43.539c17.073,19.685 -32.94,64.677 -32.94,64.677c0,0 22.309,-76.934 32.94,-64.677m-96.212,74.921c-0.602,3.767 -8.587,21.392 -16.42,21.392c-9.19,0 -10.621,-14.812 -6.88,-27.619c3.917,-13.407 15.918,-25.861 21.944,-24.806c12.344,2.16 1.959,27.266 1.356,31.033m202.468,-20.337c0,0 -16.571,42.03 -29.527,42.03c-17.475,0 9.441,-58.262 9.441,-58.262c0,0 -21.794,-14.801 -31.134,20.902c-0.687,2.627 -8.436,37.36 -20.89,37.36c-15.465,0 -5.595,-22.34 -2.008,-32.038c1.356,-3.665 10.846,-26.714 10.846,-26.714c0,0 -20.287,-15.767 -29.927,17.174c-0.614,2.094 -11.651,40.976 -31.536,40.976c-8.637,0 -12.377,-15.743 -5.021,-23.1c3.213,-3.214 40.573,-38.766 38.766,-69.297c-0.469,-7.92 -4.67,-17.073 -15.869,-17.073c-32.037,0 -45.63,76.613 -46.348,80.696c-1.456,8.285 -7.884,29.778 -22.547,29.778c-13.381,0 -10.692,-15.009 -6.166,-29.648c0.125,-0.405 0.344,-1.187 0.344,-1.187c2.147,-7.146 3.142,-14.368 2.18,-21.177c-1.034,-7.316 -7.05,-15.079 -17.541,-15.973c-29.504,-2.511 -52.834,22.812 -52.834,55.079c0,14.964 9.491,29.979 22.798,29.979c14.713,0 25.308,-16.069 25.308,-16.069c0,0 2.662,16.069 17.074,16.069c21.09,0 32.138,-25.007 32.138,-25.007c0,0 4.518,25.007 19.885,25.007c21.09,0 32.539,-23.501 32.539,-23.501c0,0 3.917,23.501 21.894,23.501c14.261,0 23.099,-18.278 23.099,-18.278c0,0 4.268,18.278 17.475,18.278c28.673,0 44.99,-53.226 45.395,-54.685c1.506,-5.423 -7.834,-4.82 -7.834,-4.82" style="fill:#fff;fill-rule:nonzero;"/><path d="M297.443,80.377c2.261,1.442 13.981,-8.475 13.657,-9.534c-1.64,-5.349 -6.796,-4.895 -10.939,1.164c-1.614,2.358 -4.055,7.517 -2.718,8.37" style="fill:#fff;fill-rule:nonzero;"/></svg>